<svg width="70" height="70" viewBox="0 0 70 70" fill="none" xmlns="http://www.w3.org/2000/svg">
<path fill-rule="evenodd" clip-rule="evenodd" d="M0 21.4493V48.4219C0 60.2489 9.62208 69.871 21.4493 69.871H48.4219C60.2489 69.871 69.871 60.2489 69.871 48.4219V21.4493C69.871 9.62208 60.2489 0 48.4219 0H21.4493C9.62208 0 0 9.62208 0 21.4493ZM6.95292 22.405C6.95292 13.8847 13.8847 6.95292 22.405 6.95292H47.4662C55.9865 6.95292 62.9181 13.8847 62.9181 22.405V47.4662C62.9181 55.9865 55.9865 62.9181 47.4662 62.9181H22.405C13.8847 62.9181 6.95292 55.9865 6.95292 47.4662V22.405ZM25.3543 34.9355C25.3543 40.2186 29.6524 44.5167 34.9355 44.5167C40.2186 44.5167 44.5167 40.2186 44.5167 34.9355C44.5167 29.6524 40.2186 25.3543 34.9355 25.3543C29.6524 25.3543 25.3543 29.6524 25.3543 34.9355ZM19.0208 34.9355C19.0208 26.1599 26.1599 19.0208 34.9355 19.0208C43.711 19.0208 50.8502 26.1599 50.8502 34.9355C50.8502 43.711 43.711 50.8502 34.9355 50.8502C26.1599 50.8502 19.0208 43.711 19.0208 34.9355ZM52.8578 12.673C55.1093 12.673 56.9343 14.4982 56.9343 16.7496C56.9343 19.0011 55.1093 20.8262 52.8578 20.8262C50.6064 20.8262 48.7812 19.0011 48.7812 16.7496C48.7812 14.4982 50.6064 12.673 52.8578 12.673Z" fill="white"/>
</svg>
